<svg width="35" height="35" viewBox="0 0 35 35" fill="none" xmlns="http://www.w3.org/2000/svg">
<circle cx="17.5" cy="17.5" r="17.5" fill="#D9D9D9"/>
<path d="M7 25.375C7 23.9826 7.55312 22.6473 8.53769 21.6627C9.52226 20.6781 10.8576 20.125 12.25 20.125H22.75C24.1424 20.125 25.4777 20.6781 26.4623 21.6627C27.4469 22.6473 28 23.9826 28 25.375C28 26.0712 27.7234 26.7389 27.2312 27.2312C26.7389 27.7234 26.0712 28 25.375 28H9.625C8.92881 28 8.26113 27.7234 7.76884 27.2312C7.27656 26.7389 7 26.0712 7 25.375Z" stroke="black" stroke-width="2" stroke-linejoin="round"/>
<path d="M17.5 14.875C19.6746 14.875 21.4375 13.1121 21.4375 10.9375C21.4375 8.76288 19.6746 7 17.5 7C15.3254 7 13.5625 8.76288 13.5625 10.9375C13.5625 13.1121 15.3254 14.875 17.5 14.875Z" stroke="black" stroke-width="2"/>
</svg>
