<svg width="15" height="15" viewBox="0 0 15 15" fill="none" xmlns="http://www.w3.org/2000/svg">
<path d="M1.875 3.75H13.125V11.25H1.875V3.75ZM7.5 5.625C7.99728 5.625 8.47419 5.82254 8.82583 6.17417C9.17746 6.52581 9.375 7.00272 9.375 7.5C9.375 7.99728 9.17746 8.47419 8.82583 8.82583C8.47419 9.17746 7.99728 9.375 7.5 9.375C7.00272 9.375 6.52581 9.17746 6.17417 8.82583C5.82254 8.47419 5.625 7.99728 5.625 7.5C5.625 7.00272 5.82254 6.52581 6.17417 6.17417C6.52581 5.82254 7.00272 5.625 7.5 5.625ZM4.375 5C4.375 5.33152 4.2433 5.64946 4.00888 5.88388C3.77446 6.1183 3.45652 6.25 3.125 6.25V8.75C3.45652 8.75 3.77446 8.8817 4.00888 9.11612C4.2433 9.35054 4.375 9.66848 4.375 10H10.625C10.625 9.66848 10.7567 9.35054 10.9911 9.11612C11.2255 8.8817 11.5435 8.75 11.875 8.75V6.25C11.5435 6.25 11.2255 6.1183 10.9911 5.88388C10.7567 5.64946 10.625 5.33152 10.625 5H4.375Z" fill="#4ECB71"/>
</svg>
