<svg width="24" height="24" viewBox="0 0 24 24" fill="none" xmlns="http://www.w3.org/2000/svg">
<path d="M23.7673 14.1665C23.4905 13.0877 22.9755 12.0916 22.2635 11.2578C21.5515 10.4241 20.6623 9.77586 19.6672 9.36509C18.672 8.95432 17.5984 8.79242 16.5325 8.89234C15.4666 8.99227 14.4379 9.35125 13.5288 9.94053L15.4012 2.13952C15.4477 1.9457 15.4346 1.74156 15.3639 1.5559C15.2932 1.37024 15.1684 1.21244 15.0071 1.10479C14.2298 0.592611 13.3616 0.248831 12.4544 0.0939004C11.5471 -0.0610297 10.6193 -0.0239434 9.72604 0.202953C8.8328 0.429849 7.99242 0.841918 7.25493 1.41464C6.51743 1.98736 5.89787 2.70903 5.43312 3.53671C4.96838 4.36439 4.66794 5.28116 4.54968 6.23248C4.43143 7.18379 4.49777 8.15021 4.74477 9.07422C4.99177 9.99823 5.41438 10.861 5.98744 11.6111C6.56051 12.3612 7.27232 12.9833 8.08053 13.4405L0.669567 15.6494C0.485454 15.7041 0.322453 15.8178 0.203566 15.9744C0.0846784 16.1309 0.0159074 16.3225 0.00695661 16.522C-0.0633816 18.1503 0.401365 19.7548 1.32424 21.0699C2.24711 22.3849 3.57275 23.3316 5.08164 23.7532C5.66362 23.9163 6.26353 23.9992 6.86612 24C7.78436 23.9975 8.69277 23.8027 9.53755 23.4271C10.3823 23.0516 11.1463 22.503 11.7842 21.8138C12.4221 21.1246 12.921 20.3089 13.2513 19.4148C13.5815 18.5208 13.7365 17.5667 13.707 16.6091L19.2455 22.2023C19.3833 22.3414 19.5594 22.4317 19.749 22.4606C19.9387 22.4895 20.1322 22.4554 20.3023 22.3633C21.6881 21.613 22.7869 20.3916 23.417 18.9011C24.0471 17.4105 24.1706 15.7402 23.7673 14.1665ZM9.94383 13.332C9.94383 12.9548 10.051 12.586 10.2519 12.2724C10.4527 11.9587 10.7382 11.7142 11.0722 11.5699C11.4062 11.4255 11.7738 11.3877 12.1283 11.4613C12.4829 11.5349 12.8086 11.7166 13.0642 11.9833C13.3199 12.2501 13.494 12.5899 13.5645 12.9599C13.635 13.3299 13.5988 13.7134 13.4605 14.0619C13.3221 14.4104 13.0878 14.7083 12.7872 14.9179C12.4867 15.1275 12.1332 15.2394 11.7717 15.2394C11.2869 15.2394 10.822 15.0384 10.4792 14.6807C10.1364 14.323 9.94383 13.8379 9.94383 13.332ZM6.28805 7.13317C6.28776 6.24935 6.50151 5.37978 6.90944 4.60522C7.31737 3.83065 7.90626 3.17621 8.62142 2.70265C9.33659 2.2291 10.1548 1.95179 11.0002 1.89648C11.8455 1.84117 12.6906 2.00965 13.4568 2.38628L11.7454 9.51734C11.0906 9.52247 10.4491 9.71103 9.88803 10.0633C9.32693 10.4156 8.86681 10.9187 8.55578 11.52C7.85765 11.0436 7.28457 10.3929 6.88856 9.6268C6.49254 8.86073 6.28613 8.00358 6.28805 7.13317ZM9.37262 21.3869C8.63926 21.8291 7.81072 22.0707 6.96393 22.0894C6.11714 22.1081 5.27956 21.9032 4.52896 21.4937C3.77836 21.0843 3.13908 20.4835 2.67048 19.7473C2.20188 19.0111 1.91916 18.1633 1.84856 17.2826L8.62432 15.2632C8.94647 15.8358 9.40629 16.3108 9.95829 16.6411C10.5103 16.9715 11.1354 17.1457 11.7717 17.1467H11.8757C11.8297 18.015 11.5767 18.8576 11.1396 19.5981C10.7025 20.3386 10.0951 20.9534 9.37262 21.3869ZM21.5018 18.6451C21.132 19.3145 20.6248 19.8901 20.0167 20.3308L14.9534 15.2179C15.2774 14.6241 15.4421 13.9501 15.4303 13.2669C15.4184 12.5837 15.2304 11.9165 14.886 11.3353C15.8527 10.8261 16.9511 10.6562 18.0178 10.851C19.0845 11.0458 20.0624 11.5948 20.8059 12.4163C21.5494 13.2378 22.0188 14.2879 22.1442 15.4102C22.2696 16.5326 22.0443 17.6672 21.5018 18.6451Z" fill="#7210FF"/>
</svg>
