<svg width="30" height="30" viewBox="0 0 30 30" fill="none" xmlns="http://www.w3.org/2000/svg">
<path d="M2.5 13.75L6.00875 9.80375C6.47785 9.27586 7.05345 8.85332 7.69765 8.56397C8.34185 8.27461 9.04005 8.12501 9.74625 8.125H10M2.5 24.375H9.375L14.375 20.625C14.375 20.625 15.3875 19.9413 16.875 18.75C20 16.25 16.875 12.2925 13.75 14.375C11.205 16.0712 8.75 17.5 8.75 17.5" stroke="#4ECB71" stroke-width="1.5" stroke-linecap="round" stroke-linejoin="round"/>
<path d="M10 16.875V8.75C10 8.08696 10.2634 7.45107 10.7322 6.98223C11.2011 6.51339 11.837 6.25 12.5 6.25H25C25.663 6.25 26.2989 6.51339 26.7678 6.98223C27.2366 7.45107 27.5 8.08696 27.5 8.75V16.25C27.5 16.913 27.2366 17.5489 26.7678 18.0178C26.2989 18.4866 25.663 18.75 25 18.75H16.875" stroke="#4ECB71" stroke-width="1.5"/>
<path d="M24.375 12.5125L24.3875 12.4987M13.125 12.5125L13.1375 12.4987M18.75 15C18.087 15 17.4511 14.7366 16.9822 14.2678C16.5134 13.7989 16.25 13.163 16.25 12.5C16.25 11.837 16.5134 11.2011 16.9822 10.7322C17.4511 10.2634 18.087 10 18.75 10C19.413 10 20.0489 10.2634 20.5178 10.7322C20.9866 11.2011 21.25 11.837 21.25 12.5C21.25 13.163 20.9866 13.7989 20.5178 14.2678C20.0489 14.7366 19.413 15 18.75 15Z" stroke="#4ECB71" stroke-width="1.5" stroke-linecap="round" stroke-linejoin="round"/>
</svg>
